<svg id="Layer_1" data-name="Layer 1" xmlns="http://www.w3.org/2000/svg" xmlns:xlink="http://www.w3.org/1999/xlink" viewBox="0 0 1842.52 1842.52"><defs><style>.cls-1{fill:#151719;}.cls-2{fill:url(#linear-gradient);}.cls-3{fill:url(#linear-gradient-2);}.cls-4{fill:url(#linear-gradient-3);}.cls-5{fill:url(#linear-gradient-4);}.cls-6{fill:url(#linear-gradient-5);}.cls-7{fill:url(#linear-gradient-6);}.cls-8{fill:url(#linear-gradient-7);}.cls-9{fill:url(#linear-gradient-8);}.cls-10{fill:#fff;}.cls-11{fill:#212528;stroke:#212528;stroke-miterlimit:10;}.cls-12{fill:url(#linear-gradient-9);}.cls-13{fill:url(#linear-gradient-10);}.cls-14{fill:url(#linear-gradient-11);}.cls-15{fill:url(#linear-gradient-12);}.cls-16{fill:none;}</style><linearGradient id="linear-gradient" x1="733.85" y1="1127.92" x2="933.63" y2="1127.92" gradientUnits="userSpaceOnUse"><stop offset="0" stop-color="#a71013"/><stop offset="0.5" stop-color="#790b08"/></linearGradient><linearGradient id="linear-gradient-2" x1="738.35" y1="1154.19" x2="755.14" y2="1154.19" gradientUnits="userSpaceOnUse"><stop offset="0" stop-color="#b12824"/><stop offset="0.8" stop-color="#790b08"/></linearGradient><linearGradient id="linear-gradient-3" x1="766.54" y1="1154.19" x2="787.31" y2="1154.19" xlink:href="#linear-gradient-2"/><linearGradient id="linear-gradient-4" x1="800.87" y1="1154.19" x2="817.54" y2="1154.19" xlink:href="#linear-gradient-2"/><linearGradient id="linear-gradient-5" x1="831.69" y1="1154.19" x2="835.09" y2="1154.19" xlink:href="#linear-gradient-2"/><linearGradient id="linear-gradient-6" x1="848.99" y1="1154.19" x2="866.09" y2="1154.19" xlink:href="#linear-gradient-2"/><linearGradient id="linear-gradient-7" x1="875.49" y1="1154.19" x2="896.26" y2="1154.19" xlink:href="#linear-gradient-2"/><linearGradient id="linear-gradient-8" x1="909.83" y1="1154.19" x2="925.4" y2="1154.19" xlink:href="#linear-gradient-2"/><linearGradient id="linear-gradient-9" x1="1114.07" y1="1101.09" x2="775.93" y2="1078.33" gradientTransform="matrix(0.03, -1, -1, -0.03, 2181, 1733.11)" gradientUnits="userSpaceOnUse"><stop offset="0" stop-color="#1aa8cb"/><stop offset="1" stop-color="#181a73"/></linearGradient><linearGradient id="linear-gradient-10" x1="950.36" y1="722.52" x2="765.85" y2="710.1" gradientTransform="matrix(0.03, -1, -1, -0.03, 1656.87, 1742.01)" gradientUnits="userSpaceOnUse"><stop offset="0" stop-color="#181a73"/><stop offset="1" stop-color="#1aa8cb"/></linearGradient><linearGradient id="linear-gradient-11" x1="1567.16" y1="4543.43" x2="1229.02" y2="4520.67" gradientTransform="matrix(-0.03, 1, 1, 0.03, -3692.96, -677.19)" xlink:href="#linear-gradient-9"/><linearGradient id="linear-gradient-12" x1="1403.45" y1="4164.86" x2="1218.93" y2="4152.45" gradientTransform="matrix(-0.03, 1, 1, 0.03, -3168.82, -686.08)" xlink:href="#linear-gradient-10"/></defs><path class="cls-1" d="M920.13,1093.26m-46,18.84-23.83-43.86H834.06l-21.3,41.33-1.61.25v-41.58H794.59l-20.29,25-18.93-25H738.13v50h13.52l1.52-30.85,22.32,23.92,21.3-25.86.25,32.79h24.09l7.1-11.49,29.69.76,4.54,10.73H877Zm-6.84-43.86-33.8,28.33,9.38-16.23,8.12,16.23Z"/><polygon class="cls-1" points="900.35 1084.82 918.46 1118.32 895.03 1118.32 887.57 1105.56 881.18 1118.32 857.21 1118.32 894.5 1052.92 918.46 1052.92 900.35 1084.82"/><polygon class="cls-1" points="886.16 1063.73 874.77 1082.78 857.73 1053.44 880.85 1054.25 886.16 1063.73"/><path class="cls-2" d="M933.63,1126.67H742c-2.59,0-5.19-.06-7.78,0h-.34a1.25,1.25,0,0,0,0,2.5H925.52c2.59,0,5.19.07,7.78,0h.33a1.25,1.25,0,0,0,0-2.5Z"/><path class="cls-3" d="M742.36,1165.44a7.6,7.6,0,0,1-3-3.16,10.29,10.29,0,0,1-1-4.75v-6.65a10.33,10.33,0,0,1,1-4.76,7.68,7.68,0,0,1,3-3.17,8.56,8.56,0,0,1,4.43-1.13,8.22,8.22,0,0,1,3.83.9,8.06,8.06,0,0,1,2.93,2.52,9.56,9.56,0,0,1,1.59,3.78h-3.48a5.59,5.59,0,0,0-1.06-2,5.41,5.41,0,0,0-1.75-1.38,4.87,4.87,0,0,0-4.66.24,4.82,4.82,0,0,0-1.74,2,6.91,6.91,0,0,0-.61,3v6.65a7,7,0,0,0,.61,3,4.73,4.73,0,0,0,1.74,2,4.67,4.67,0,0,0,2.6.71,5,5,0,0,0,3.81-1.78,5.48,5.48,0,0,0,1.06-2.1h3.48a9.44,9.44,0,0,1-1.6,3.78,8.18,8.18,0,0,1-6.75,3.42A8.55,8.55,0,0,1,742.36,1165.44Z"/><path class="cls-4" d="M775.47,1142.07h2.9l8.94,24.24h-3.67l-6.72-19.55-6.71,19.55h-3.67Zm-4.81,15.69h12.75V1161H770.66Z"/><path class="cls-5" d="M800.87,1142.07h3.4v24.24h-3.4Zm1.75,11.61h7.75a3.65,3.65,0,0,0,1.94-.52,3.5,3.5,0,0,0,1.29-1.47,4.89,4.89,0,0,0,.46-2.18,4.94,4.94,0,0,0-.46-2.2,3.4,3.4,0,0,0-3.23-2h-7.75v-3.24h7.64a7.63,7.63,0,0,1,3.81.93,6.43,6.43,0,0,1,2.56,2.61,8.79,8.79,0,0,1,0,7.79,6.32,6.32,0,0,1-2.56,2.59,7.73,7.73,0,0,1-3.81.92h-7.64Z"/><path class="cls-6" d="M835.09,1166.31h-3.4v-24.24h3.4Z"/><path class="cls-7" d="M849,1142.07h17.1v3.24H849Zm6.85,2h3.4v22.25h-3.4Z"/><path class="cls-8" d="M884.43,1142.07h2.9l8.93,24.24h-3.67l-6.71-19.55-6.72,19.55h-3.67Zm-4.82,15.69h12.75V1161H879.61Z"/><path class="cls-9" d="M909.83,1142.07h3.4v24.24h-3.4Zm1.7,21H925.4v3.23H911.53Z"/><rect class="cls-10" x="8.23" y="8.23" width="1834.29" height="1834.29"/><path class="cls-11" d="M404.18,1081.27q.33,3.39.5,7.11c.12,2.48.17,5.76.17,9.84v78h-12.6V1060.6h12.1l43.16,75.25,40.23-75.25h13.61v115.61H487.74v-78q0-1.53.3-7.71c.19-4.11.32-7.2.37-9.24-1.12,3-2.11,5.51-3,7.54s-1.64,3.69-2.31,4.93l-33.93,64.32h-3.77l-35.28-62.57c-.05-.08-.19-.33-.42-.76A56.33,56.33,0,0,1,404.18,1081.27Z"/><path class="cls-11" d="M516.58,1176.21,565,1060.6h15.87l49.3,115.61h-16.3l-11.33-28.44H542.53l-11.33,28.44Zm32.17-43.2h47.78l-23.93-59.18Z"/><path class="cls-11" d="M646.25,1176.21l43-59.61-43.67-56h21.34L698,1104.36l29.22-43.76h18.48l-39,54.25,47.62,61.36H732.91l-35.27-49.33L665,1176.21Z"/><path class="cls-11" d="M880.07,1076.34H818.51v83.8h61.56v-29l14.86,4v13.67q0,16-4.28,21.66t-16.37,5.68H824.56q-12.09,0-16.46-5.74t-4.37-21.6v-60.93q0-15.86,4.37-21.6t16.46-5.74h49.72q12.09,0,16.37,5.69t4.28,21.65v10.94l-14.86,3.61Z"/><path class="cls-11" d="M903,1176.21l48.46-115.61h15.87l49.29,115.61h-16.28l-11.35-28.44h-60l-11.34,28.44Zm32.16-43.2H982.9L959,1073.83Z"/><path class="cls-11" d="M1031.64,1176.21V1060.6h71.55q10,0,14.41,5.3T1122,1083v25.82q0,11.69-4.41,17t-14.41,5.31h-56.68v45.06Zm65.76-100.63h-50.89v40.36h50.89c3.64,0,6.15-.9,7.52-2.73s2-5,2-9.41v-16.08c0-4.45-.68-7.57-2-9.4S1101,1075.58,1097.4,1075.58Z"/><path class="cls-11" d="M1137.72,1176.21V1060.6h14.86v115.61Z"/><path class="cls-11" d="M1226.21,1076.34v99.87h-14.78v-99.87h-40.56V1060.6h96.07v15.74Z"/><path class="cls-11" d="M1248.42,1176.21l48.46-115.61h15.86l49.3,115.61h-16.29l-11.34-28.44h-60L1263,1176.21Zm32.16-43.2h47.78l-23.93-59.18Z"/><path class="cls-11" d="M1377.11,1176.21V1060.6H1392v99.54h67.18v16.07Z"/><path class="cls-12" d="M1224.42,631c-40.5-2.24-67.17,14-88.36,47.94-25.94,41.57-52.65,84.53-78.3,126.4-28.43,46.39-61.92,57.21-104.72,22.15C928.61,837.82,932,876.3,934.9,897.57c13.76,24.11,45.09,31.89,70.91,31.25,36.71-.9,72.14-19.37,97.67-45.3q99.68-124.9,198.93-250.15Q1263.41,632.29,1224.42,631Z"/><path class="cls-13" d="M953,827.48s4,5.26,11.36,13.95c34.73,41.19,88.68,95.19,139.08,42.09-14.09,17.56-30.93,32.11-48.61,44.57-52.65,37.1-135.44,27.31-197.3,23.75-29.74-1.72-35.37-37.06-22.85-59.09,13.78-24.27,29.21-50.13,42.7-73.61C898.11,783.13,933.77,802.12,953,827.48Z"/><path class="cls-14" d="M692.14,972.94c40.5,2.23,67.17-14,88.36-48,25.94-41.58,52.66-84.53,78.31-126.39,28.42-46.38,61.92-57.22,104.71-22.16,24.43-10.34,21.06-48.82,18.14-70.09-13.77-24.1-45.1-31.87-70.91-31.25-36.69.9-72.13,19.38-97.66,45.3Q713.4,845.31,614.16,970.56,653.16,971.64,692.14,972.94Z"/><path class="cls-15" d="M963.52,776.44s-4-5.26-11.35-13.94c-34.74-41.21-88.67-95.19-139.08-42.1,14.08-17.56,30.92-32.1,48.6-44.56,52.66-37.12,135.45-27.33,197.3-23.75,29.74,1.72,35.37,37,22.85,59.09-13.78,24.27-29.2,50.13-42.7,73.6C1018.45,820.79,982.8,801.81,963.52,776.44Z"/><rect class="cls-16" x="623.62" y="500.31" width="595.28" height="841.89"/></svg>